<mxfile host="app.diagrams.net" modified="2022-02-14T08:43:19.939Z" agent="5.0 (Windows NT 10.0; Win64; x64) AppleWebKit/537.36 (KHTML, like Gecko) Chrome/98.0.4758.80 Safari/537.36 Edg/98.0.1108.43" etag="kNwdh3ni0uD0e7O5AZS_" version="16.5.6" type="github">
  <diagram id="kHEh7FCxtHQ9_woBUVam" name="페이지-1">
    <mxGraphModel dx="1298" dy="724" grid="1" gridSize="10" guides="1" tooltips="1" connect="1" arrows="1" fold="1" page="1" pageScale="1" pageWidth="827" pageHeight="1169" math="0" shadow="0">
      <root>
        <mxCell id="0" />
        <mxCell id="1" parent="0" />
        <mxCell id="v6w30COUrI75urBI-avZ-40" style="edgeStyle=orthogonalEdgeStyle;rounded=0;orthogonalLoop=1;jettySize=auto;html=1;entryX=0.005;entryY=0.53;entryDx=0;entryDy=0;startArrow=ERone;startFill=0;endArrow=ERone;endFill=0;entryPerimeter=0;" parent="1" source="MIABXXXkFtGxlnCeQIk6-1" target="v6w30COUrI75urBI-avZ-76" edge="1">
          <mxGeometry relative="1" as="geometry" />
        </mxCell>
        <mxCell id="v6w30COUrI75urBI-avZ-37" style="edgeStyle=orthogonalEdgeStyle;rounded=0;orthogonalLoop=1;jettySize=auto;html=1;startArrow=ERzeroToMany;startFill=0;endArrow=ERone;endFill=0;entryX=0.5;entryY=0;entryDx=0;entryDy=0;" parent="1" source="v6w30COUrI75urBI-avZ-7" target="MIABXXXkFtGxlnCeQIk6-5" edge="1">
          <mxGeometry relative="1" as="geometry">
            <mxPoint x="666" y="339" as="targetPoint" />
          </mxGeometry>
        </mxCell>
        <mxCell id="v6w30COUrI75urBI-avZ-34" style="edgeStyle=orthogonalEdgeStyle;rounded=0;orthogonalLoop=1;jettySize=auto;html=1;startArrow=ERone;startFill=0;endArrow=ERone;endFill=0;exitX=1.008;exitY=0.365;exitDx=0;exitDy=0;exitPerimeter=0;entryX=-0.013;entryY=0.392;entryDx=0;entryDy=0;entryPerimeter=0;" parent="1" source="v6w30COUrI75urBI-avZ-70" target="v6w30COUrI75urBI-avZ-74" edge="1">
          <mxGeometry relative="1" as="geometry">
            <mxPoint x="520" y="323.9999999999999" as="sourcePoint" />
            <mxPoint x="560" y="380" as="targetPoint" />
          </mxGeometry>
        </mxCell>
        <mxCell id="v6w30COUrI75urBI-avZ-42" style="edgeStyle=orthogonalEdgeStyle;rounded=0;orthogonalLoop=1;jettySize=auto;html=1;entryX=0;entryY=0.342;entryDx=0;entryDy=0;startArrow=ERzeroToMany;startFill=0;endArrow=ERone;endFill=0;exitX=0.997;exitY=0.473;exitDx=0;exitDy=0;exitPerimeter=0;entryPerimeter=0;" parent="1" source="v6w30COUrI75urBI-avZ-61" target="v6w30COUrI75urBI-avZ-70" edge="1">
          <mxGeometry relative="1" as="geometry">
            <mxPoint x="199" y="320" as="sourcePoint" />
            <mxPoint x="319" y="324" as="targetPoint" />
          </mxGeometry>
        </mxCell>
        <mxCell id="v6w30COUrI75urBI-avZ-50" style="edgeStyle=orthogonalEdgeStyle;rounded=0;orthogonalLoop=1;jettySize=auto;html=1;startArrow=ERoneToMany;startFill=0;endArrow=ERone;endFill=0;entryX=0.5;entryY=0;entryDx=0;entryDy=0;" parent="1" source="v6w30COUrI75urBI-avZ-5" target="v6w30COUrI75urBI-avZ-1" edge="1">
          <mxGeometry relative="1" as="geometry">
            <mxPoint x="149" y="270" as="targetPoint" />
          </mxGeometry>
        </mxCell>
        <mxCell id="v6w30COUrI75urBI-avZ-52" style="edgeStyle=orthogonalEdgeStyle;rounded=0;orthogonalLoop=1;jettySize=auto;html=1;entryX=0.996;entryY=0.427;entryDx=0;entryDy=0;entryPerimeter=0;startArrow=ERone;startFill=0;endArrow=ERzeroToMany;endFill=0;exitX=0;exitY=0.5;exitDx=0;exitDy=0;" parent="1" source="MIABXXXkFtGxlnCeQIk6-1" target="v6w30COUrI75urBI-avZ-63" edge="1">
          <mxGeometry relative="1" as="geometry">
            <mxPoint x="279" y="111" as="sourcePoint" />
            <mxPoint x="238.79999999999973" y="124.00000000000011" as="targetPoint" />
            <Array as="points" />
          </mxGeometry>
        </mxCell>
        <mxCell id="v6w30COUrI75urBI-avZ-54" value="&lt;&lt;Value Type&gt;&gt;&#xa;Address" style="swimlane;childLayout=stackLayout;horizontal=1;startSize=40;horizontalStack=0;rounded=1;fontSize=14;fontStyle=0;strokeWidth=2;resizeParent=0;resizeLast=1;shadow=0;dashed=0;align=center;glass=0;sketch=0;fillColor=none;html=0;container=0;" parent="1" vertex="1">
          <mxGeometry x="340" y="461" width="160" height="100" as="geometry" />
        </mxCell>
        <mxCell id="v6w30COUrI75urBI-avZ-55" value="- city : String&#xa;- street: String&#xa;- zipcode : String" style="align=left;strokeColor=none;fillColor=none;spacingLeft=4;fontSize=12;verticalAlign=top;resizable=0;rotatable=0;part=1;rounded=0;shadow=0;glass=0;sketch=0;html=0;container=0;" parent="v6w30COUrI75urBI-avZ-54" vertex="1">
          <mxGeometry y="40" width="160" height="60" as="geometry" />
        </mxCell>
        <mxCell id="v6w30COUrI75urBI-avZ-56" value="Delivery" style="swimlane;childLayout=stackLayout;horizontal=1;startSize=30;horizontalStack=0;rounded=1;fontSize=14;fontStyle=0;strokeWidth=2;resizeParent=0;resizeLast=1;shadow=0;dashed=0;align=center;glass=0;sketch=0;fillColor=none;html=0;container=0;" parent="1" vertex="1">
          <mxGeometry x="54" y="453" width="201" height="111" as="geometry" />
        </mxCell>
        <mxCell id="v6w30COUrI75urBI-avZ-57" value="- id : Long&#xa;- address : Address&#xa;- status : DeliveryStatus&#xa;- createdDate : LocalDateTime&#xa;- lastModifiedDate : LocalDateTime" style="align=left;strokeColor=none;fillColor=none;spacingLeft=4;fontSize=12;verticalAlign=top;resizable=0;rotatable=0;part=1;rounded=0;shadow=0;glass=0;sketch=0;html=0;container=0;" parent="v6w30COUrI75urBI-avZ-56" vertex="1">
          <mxGeometry y="30" width="201" height="81" as="geometry" />
        </mxCell>
        <mxCell id="v6w30COUrI75urBI-avZ-59" style="edgeStyle=orthogonalEdgeStyle;rounded=0;orthogonalLoop=1;jettySize=auto;html=1;exitX=0.5;exitY=1;exitDx=0;exitDy=0;entryX=0.5;entryY=0;entryDx=0;entryDy=0;startArrow=ERone;startFill=0;endArrow=ERone;endFill=0;" parent="1" source="v6w30COUrI75urBI-avZ-1" target="v6w30COUrI75urBI-avZ-56" edge="1">
          <mxGeometry relative="1" as="geometry" />
        </mxCell>
        <mxCell id="v6w30COUrI75urBI-avZ-1" value="Order" style="swimlane;childLayout=stackLayout;horizontal=1;startSize=30;horizontalStack=0;rounded=1;fontSize=14;fontStyle=0;strokeWidth=2;resizeParent=0;resizeLast=1;shadow=0;dashed=0;align=center;container=0;" parent="1" vertex="1">
          <mxGeometry x="54" y="248.75" width="200" height="147.5" as="geometry" />
        </mxCell>
        <mxCell id="v6w30COUrI75urBI-avZ-61" value="&lt;div&gt;- id : Long&lt;/div&gt;&lt;b&gt;&lt;div&gt;&lt;b&gt;- member : Member&lt;/b&gt;&lt;/div&gt;&lt;div&gt;&lt;b&gt;- delivery : Delivery&lt;/b&gt;&lt;/div&gt;&lt;/b&gt;&lt;div&gt;- orderStatus : OrderStatus&lt;/div&gt;&lt;div&gt;- orderDate : LocalDateTime&lt;/div&gt;&lt;div&gt;- createdDate : LocalDateTime&lt;br style=&quot;padding: 0px ; margin: 0px&quot;&gt;- lastModifiedDate : LocalDateTime&lt;br&gt;&lt;/div&gt;" style="text;html=1;align=left;verticalAlign=top;resizable=0;points=[];autosize=1;strokeColor=none;fillColor=none;horizontal=1;" parent="v6w30COUrI75urBI-avZ-1" vertex="1">
          <mxGeometry y="30" width="200" height="117.5" as="geometry" />
        </mxCell>
        <mxCell id="v6w30COUrI75urBI-avZ-41" value="&lt;div style=&quot;text-align: left&quot;&gt;&lt;br&gt;&lt;/div&gt;" style="text;html=1;align=center;verticalAlign=middle;resizable=0;points=[];autosize=1;strokeColor=none;fillColor=none;container=0;" parent="1" vertex="1">
          <mxGeometry x="129" y="314.5" width="20" height="20" as="geometry" />
        </mxCell>
        <mxCell id="v6w30COUrI75urBI-avZ-5" value="OrderItem" style="swimlane;childLayout=stackLayout;horizontal=1;startSize=30;horizontalStack=0;rounded=1;fontSize=14;fontStyle=0;strokeWidth=2;resizeParent=0;resizeLast=1;shadow=0;dashed=0;align=center;container=0;" parent="1" vertex="1">
          <mxGeometry x="54" y="35.5" width="200" height="143.5" as="geometry" />
        </mxCell>
        <mxCell id="v6w30COUrI75urBI-avZ-63" value="&lt;div&gt;- id : Long&lt;/div&gt;&lt;div&gt;&lt;b&gt;- item : Item&lt;/b&gt;&lt;/div&gt;&lt;b&gt;&lt;div&gt;&lt;b&gt;- order : Order&lt;/b&gt;&lt;/div&gt;&lt;/b&gt;&lt;div&gt;- orderPrice : int&lt;/div&gt;&lt;div&gt;- count : int&lt;/div&gt;&lt;div&gt;- createdDate : LocalDateTime&lt;br style=&quot;padding: 0px ; margin: 0px&quot;&gt;- lastModifiedDate : LocalDateTime&lt;br&gt;&lt;/div&gt;" style="text;html=1;align=left;verticalAlign=top;resizable=0;points=[];autosize=1;strokeColor=none;fillColor=none;" parent="v6w30COUrI75urBI-avZ-5" vertex="1">
          <mxGeometry y="30" width="200" height="113.5" as="geometry" />
        </mxCell>
        <mxCell id="MIABXXXkFtGxlnCeQIk6-1" value="Item" style="swimlane;childLayout=stackLayout;horizontal=1;startSize=30;horizontalStack=0;rounded=1;fontSize=14;fontStyle=0;strokeWidth=2;resizeParent=0;resizeLast=1;shadow=0;dashed=0;align=center;container=0;" parent="1" vertex="1">
          <mxGeometry x="341" y="33.75" width="200" height="160.5" as="geometry" />
        </mxCell>
        <mxCell id="v6w30COUrI75urBI-avZ-71" value="&lt;span&gt;- id : Long&lt;/span&gt;&lt;br style=&quot;padding: 0px ; margin: 0px&quot;&gt;&lt;span&gt;- itemName : String&lt;/span&gt;&lt;br style=&quot;padding: 0px ; margin: 0px&quot;&gt;&lt;span&gt;- price : int&lt;/span&gt;&lt;br style=&quot;padding: 0px ; margin: 0px&quot;&gt;&lt;span&gt;- stockQuantity : int&lt;/span&gt;&lt;br style=&quot;padding: 0px ; margin: 0px&quot;&gt;&lt;span&gt;- status : ItemStatus&lt;/span&gt;&lt;br style=&quot;padding: 0px ; margin: 0px&quot;&gt;&lt;span&gt;- itemDetail : String&lt;br&gt;&lt;/span&gt;- createdDate : LocalDateTime&lt;br style=&quot;padding: 0px ; margin: 0px&quot;&gt;- lastModifiedDate : LocalDateTime&lt;span&gt;&lt;br&gt;&lt;/span&gt;" style="text;html=1;align=left;verticalAlign=top;resizable=0;points=[];autosize=1;strokeColor=none;fillColor=none;" parent="MIABXXXkFtGxlnCeQIk6-1" vertex="1">
          <mxGeometry y="30" width="200" height="130.5" as="geometry" />
        </mxCell>
        <mxCell id="v6w30COUrI75urBI-avZ-64" value="" style="edgeStyle=orthogonalEdgeStyle;rounded=0;orthogonalLoop=1;jettySize=auto;html=1;startArrow=ERone;startFill=0;endArrow=ERone;endFill=0;exitX=0.502;exitY=0.999;exitDx=0;exitDy=0;exitPerimeter=0;entryX=0.5;entryY=0;entryDx=0;entryDy=0;" parent="1" source="v6w30COUrI75urBI-avZ-71" target="MIABXXXkFtGxlnCeQIk6-3" edge="1">
          <mxGeometry relative="1" as="geometry">
            <mxPoint x="441" y="200" as="sourcePoint" />
            <mxPoint x="441" y="279" as="targetPoint" />
          </mxGeometry>
        </mxCell>
        <mxCell id="v6w30COUrI75urBI-avZ-7" value="CartItem" style="swimlane;childLayout=stackLayout;horizontal=1;startSize=30;horizontalStack=0;rounded=1;fontSize=14;fontStyle=0;strokeWidth=2;resizeParent=0;resizeLast=1;shadow=0;dashed=0;align=center;container=0;" parent="1" vertex="1">
          <mxGeometry x="613" y="36.5" width="200" height="128" as="geometry" />
        </mxCell>
        <mxCell id="v6w30COUrI75urBI-avZ-76" value="&lt;div&gt;- id : Long&lt;/div&gt;&lt;b&gt;&lt;div&gt;&lt;b&gt;- cart : Cart&lt;/b&gt;&lt;/div&gt;&lt;div&gt;&lt;b&gt;- item : Item&lt;/b&gt;&lt;/div&gt;&lt;/b&gt;&lt;div&gt;- count: int&lt;/div&gt;&lt;div&gt;- createdDate : LocalDateTime&lt;br style=&quot;padding: 0px ; margin: 0px&quot;&gt;- lastModifiedDate : LocalDateTime&lt;br&gt;&lt;/div&gt;" style="text;html=1;align=left;verticalAlign=top;resizable=0;points=[];autosize=1;strokeColor=none;fillColor=none;" parent="v6w30COUrI75urBI-avZ-7" vertex="1">
          <mxGeometry y="30" width="200" height="90" as="geometry" />
        </mxCell>
        <mxCell id="v6w30COUrI75urBI-avZ-35" value="&lt;div style=&quot;text-align: left&quot;&gt;&lt;br&gt;&lt;/div&gt;" style="text;html=1;align=center;verticalAlign=middle;resizable=0;points=[];autosize=1;strokeColor=none;fillColor=none;container=0;" parent="v6w30COUrI75urBI-avZ-7" vertex="1">
          <mxGeometry y="120" width="200" height="8" as="geometry" />
        </mxCell>
        <mxCell id="MIABXXXkFtGxlnCeQIk6-5" value="Cart" style="swimlane;childLayout=stackLayout;horizontal=1;startSize=30;horizontalStack=0;rounded=1;fontSize=14;fontStyle=0;strokeWidth=2;resizeParent=0;resizeLast=1;shadow=0;dashed=0;align=center;html=1;container=0;" parent="1" vertex="1">
          <mxGeometry x="613" y="277.75" width="200" height="103" as="geometry">
            <mxRectangle x="500" y="230" width="60" height="30" as="alternateBounds" />
          </mxGeometry>
        </mxCell>
        <mxCell id="v6w30COUrI75urBI-avZ-74" value="&lt;div&gt;- id : Long&lt;/div&gt;&lt;b&gt;&lt;div&gt;&lt;b&gt;- member : Member&lt;/b&gt;&lt;/div&gt;&lt;div&gt;&lt;span style=&quot;font-weight: 400&quot;&gt;- createdDate : LocalDateTime&lt;/span&gt;&lt;br style=&quot;padding: 0px ; margin: 0px ; font-weight: 400&quot;&gt;&lt;span style=&quot;font-weight: 400&quot;&gt;- lastModifiedDate : LocalDateTime&lt;/span&gt;&lt;b&gt;&lt;br&gt;&lt;/b&gt;&lt;/div&gt;&lt;/b&gt;" style="text;html=1;align=left;verticalAlign=top;resizable=0;points=[];autosize=1;strokeColor=none;fillColor=none;" parent="MIABXXXkFtGxlnCeQIk6-5" vertex="1">
          <mxGeometry y="30" width="200" height="73" as="geometry" />
        </mxCell>
        <mxCell id="MIABXXXkFtGxlnCeQIk6-3" value="Member" style="swimlane;childLayout=stackLayout;horizontal=1;startSize=30;horizontalStack=0;rounded=1;fontSize=14;fontStyle=0;strokeWidth=2;resizeParent=0;resizeLast=1;shadow=0;dashed=0;align=center;container=0;" parent="1" vertex="1">
          <mxGeometry x="341" y="258.5" width="200" height="162.5" as="geometry" />
        </mxCell>
        <mxCell id="v6w30COUrI75urBI-avZ-70" value="&lt;span&gt;- id : Long&lt;/span&gt;&lt;br style=&quot;padding: 0px ; margin: 0px&quot;&gt;&lt;span&gt;- name : String&lt;/span&gt;&lt;br style=&quot;padding: 0px ; margin: 0px&quot;&gt;&lt;span&gt;- email : String&lt;/span&gt;&lt;br style=&quot;padding: 0px ; margin: 0px&quot;&gt;&lt;span&gt;- password : String&lt;/span&gt;&lt;br style=&quot;padding: 0px ; margin: 0px&quot;&gt;&lt;span&gt;- address : Address&lt;/span&gt;&lt;br style=&quot;padding: 0px ; margin: 0px&quot;&gt;&lt;span&gt;- role : Role&lt;br&gt;&lt;/span&gt;- createdDate : LocalDateTime&lt;br style=&quot;padding: 0px ; margin: 0px&quot;&gt;- lastModifiedDate : LocalDateTime&lt;span&gt;&lt;br&gt;&lt;/span&gt;" style="text;html=1;align=left;verticalAlign=top;resizable=0;points=[];autosize=1;strokeColor=none;fillColor=none;" parent="MIABXXXkFtGxlnCeQIk6-3" vertex="1">
          <mxGeometry y="30" width="200" height="132.5" as="geometry" />
        </mxCell>
        <mxCell id="b8nxjy1-gUdfno-uLMkx-48" value="" style="group" vertex="1" connectable="0" parent="1">
          <mxGeometry x="90" y="610" width="670" height="190" as="geometry" />
        </mxCell>
        <mxCell id="b8nxjy1-gUdfno-uLMkx-24" value="&lt;span style=&quot;font-size: 14px&quot;&gt;Delivery&lt;/span&gt;" style="rounded=1;arcSize=10;whiteSpace=wrap;html=1;align=center;fontSize=10;aspect=fixed;" vertex="1" parent="b8nxjy1-gUdfno-uLMkx-48">
          <mxGeometry x="300" y="160" width="80" height="30" as="geometry" />
        </mxCell>
        <mxCell id="b8nxjy1-gUdfno-uLMkx-25" value="&lt;span style=&quot;font-size: 14px&quot;&gt;Cart&lt;/span&gt;" style="rounded=1;arcSize=10;whiteSpace=wrap;html=1;align=center;fontSize=10;aspect=fixed;" vertex="1" parent="b8nxjy1-gUdfno-uLMkx-48">
          <mxGeometry x="400" y="160" width="60" height="30" as="geometry" />
        </mxCell>
        <mxCell id="b8nxjy1-gUdfno-uLMkx-26" value="&lt;span style=&quot;font-size: 14px&quot;&gt;CartItem&lt;/span&gt;" style="rounded=1;arcSize=10;whiteSpace=wrap;html=1;align=center;fontSize=10;aspect=fixed;" vertex="1" parent="b8nxjy1-gUdfno-uLMkx-48">
          <mxGeometry x="480" y="160" width="90" height="30" as="geometry" />
        </mxCell>
        <mxCell id="b8nxjy1-gUdfno-uLMkx-41" style="edgeStyle=orthogonalEdgeStyle;curved=1;orthogonalLoop=1;jettySize=auto;html=1;fontSize=10;endArrow=block;endFill=0;" edge="1" parent="b8nxjy1-gUdfno-uLMkx-48" source="b8nxjy1-gUdfno-uLMkx-27">
          <mxGeometry relative="1" as="geometry">
            <mxPoint x="304" y="80" as="targetPoint" />
            <Array as="points">
              <mxPoint x="245" y="140" />
              <mxPoint x="304" y="140" />
            </Array>
          </mxGeometry>
        </mxCell>
        <mxCell id="b8nxjy1-gUdfno-uLMkx-27" value="&lt;span style=&quot;font-size: 14px&quot;&gt;Order&lt;/span&gt;" style="rounded=1;arcSize=10;whiteSpace=wrap;html=1;align=center;fontSize=10;aspect=fixed;" vertex="1" parent="b8nxjy1-gUdfno-uLMkx-48">
          <mxGeometry x="210" y="160" width="70" height="30" as="geometry" />
        </mxCell>
        <mxCell id="b8nxjy1-gUdfno-uLMkx-40" style="edgeStyle=orthogonalEdgeStyle;curved=1;orthogonalLoop=1;jettySize=auto;html=1;fontSize=10;endArrow=block;endFill=0;" edge="1" parent="b8nxjy1-gUdfno-uLMkx-48" source="b8nxjy1-gUdfno-uLMkx-28">
          <mxGeometry relative="1" as="geometry">
            <mxPoint x="282" y="80" as="targetPoint" />
            <Array as="points">
              <mxPoint x="145" y="140" />
              <mxPoint x="282" y="140" />
            </Array>
          </mxGeometry>
        </mxCell>
        <mxCell id="b8nxjy1-gUdfno-uLMkx-28" value="&lt;span style=&quot;font-size: 14px&quot;&gt;OrderItem&lt;/span&gt;" style="rounded=1;arcSize=10;whiteSpace=wrap;html=1;align=center;fontSize=10;aspect=fixed;" vertex="1" parent="b8nxjy1-gUdfno-uLMkx-48">
          <mxGeometry x="100" y="160" width="90" height="30" as="geometry" />
        </mxCell>
        <mxCell id="b8nxjy1-gUdfno-uLMkx-30" value="&lt;span style=&quot;font-size: 14px&quot;&gt;Member&lt;/span&gt;" style="rounded=1;arcSize=10;whiteSpace=wrap;html=1;align=center;fontSize=10;aspect=fixed;" vertex="1" parent="b8nxjy1-gUdfno-uLMkx-48">
          <mxGeometry x="590" y="160" width="80" height="30" as="geometry" />
        </mxCell>
        <mxCell id="b8nxjy1-gUdfno-uLMkx-39" style="edgeStyle=orthogonalEdgeStyle;curved=1;orthogonalLoop=1;jettySize=auto;html=1;fontSize=10;endArrow=block;endFill=0;" edge="1" parent="b8nxjy1-gUdfno-uLMkx-48" source="b8nxjy1-gUdfno-uLMkx-31">
          <mxGeometry relative="1" as="geometry">
            <mxPoint x="256" y="80" as="targetPoint" />
            <Array as="points">
              <mxPoint x="40" y="120" />
              <mxPoint x="256" y="120" />
            </Array>
          </mxGeometry>
        </mxCell>
        <mxCell id="b8nxjy1-gUdfno-uLMkx-31" value="&lt;span style=&quot;font-size: 14px&quot;&gt;Item&lt;br&gt;&lt;/span&gt;" style="rounded=1;arcSize=10;whiteSpace=wrap;html=1;align=center;fontSize=10;aspect=fixed;" vertex="1" parent="b8nxjy1-gUdfno-uLMkx-48">
          <mxGeometry y="160" width="80" height="30" as="geometry" />
        </mxCell>
        <mxCell id="b8nxjy1-gUdfno-uLMkx-33" value="DateBaseEntity" style="swimlane;childLayout=stackLayout;horizontal=1;startSize=30;horizontalStack=0;rounded=1;fontSize=14;fontStyle=0;strokeWidth=2;resizeParent=0;resizeLast=1;shadow=0;dashed=0;align=center;" vertex="1" parent="b8nxjy1-gUdfno-uLMkx-48">
          <mxGeometry x="235" width="210" height="81" as="geometry" />
        </mxCell>
        <mxCell id="b8nxjy1-gUdfno-uLMkx-34" value="- createdDate : LocalDateTime&#xa;- lastModifiedDate : LocalDateTime" style="align=left;strokeColor=none;fillColor=none;spacingLeft=4;fontSize=12;verticalAlign=top;resizable=0;rotatable=0;part=1;" vertex="1" parent="b8nxjy1-gUdfno-uLMkx-33">
          <mxGeometry y="30" width="210" height="51" as="geometry" />
        </mxCell>
        <mxCell id="b8nxjy1-gUdfno-uLMkx-42" style="edgeStyle=orthogonalEdgeStyle;curved=1;orthogonalLoop=1;jettySize=auto;html=1;entryX=0.5;entryY=1;entryDx=0;entryDy=0;fontSize=10;endArrow=block;endFill=0;" edge="1" parent="b8nxjy1-gUdfno-uLMkx-48" source="b8nxjy1-gUdfno-uLMkx-24" target="b8nxjy1-gUdfno-uLMkx-34">
          <mxGeometry relative="1" as="geometry" />
        </mxCell>
        <mxCell id="b8nxjy1-gUdfno-uLMkx-43" style="edgeStyle=orthogonalEdgeStyle;curved=1;orthogonalLoop=1;jettySize=auto;html=1;entryX=0.676;entryY=0.992;entryDx=0;entryDy=0;entryPerimeter=0;fontSize=10;endArrow=block;endFill=0;" edge="1" parent="b8nxjy1-gUdfno-uLMkx-48" source="b8nxjy1-gUdfno-uLMkx-25" target="b8nxjy1-gUdfno-uLMkx-34">
          <mxGeometry relative="1" as="geometry" />
        </mxCell>
        <mxCell id="b8nxjy1-gUdfno-uLMkx-44" style="edgeStyle=orthogonalEdgeStyle;curved=1;orthogonalLoop=1;jettySize=auto;html=1;entryX=0.821;entryY=0.98;entryDx=0;entryDy=0;entryPerimeter=0;fontSize=10;endArrow=block;endFill=0;" edge="1" parent="b8nxjy1-gUdfno-uLMkx-48" source="b8nxjy1-gUdfno-uLMkx-26" target="b8nxjy1-gUdfno-uLMkx-34">
          <mxGeometry relative="1" as="geometry">
            <Array as="points">
              <mxPoint x="525" y="130" />
              <mxPoint x="407" y="130" />
            </Array>
          </mxGeometry>
        </mxCell>
        <mxCell id="b8nxjy1-gUdfno-uLMkx-45" style="edgeStyle=orthogonalEdgeStyle;curved=1;orthogonalLoop=1;jettySize=auto;html=1;entryX=0.929;entryY=0.98;entryDx=0;entryDy=0;entryPerimeter=0;fontSize=10;endArrow=block;endFill=0;" edge="1" parent="b8nxjy1-gUdfno-uLMkx-48" source="b8nxjy1-gUdfno-uLMkx-30" target="b8nxjy1-gUdfno-uLMkx-34">
          <mxGeometry relative="1" as="geometry">
            <Array as="points">
              <mxPoint x="630" y="120" />
              <mxPoint x="430" y="120" />
            </Array>
          </mxGeometry>
        </mxCell>
      </root>
    </mxGraphModel>
  </diagram>
</mxfile>
